<?xml version="1.0" encoding="UTF-8" standalone="no"?>
<!DOCTYPE svg PUBLIC "-//W3C//DTD SVG 20010904//EN"
              "http://www.w3.org/TR/2001/REC-SVG-20010904/DTD/svg10.dtd">

<svg xmlns="http://www.w3.org/2000/svg"
     width="2.66667in" height="2.66667in"
     viewBox="0 0 800 800">
  <path id="Imported Path"
        fill="none" stroke="black" stroke-width="1"
        d="M 404.27,457.37
           C 403.09,471.25 412.52,544.72 417.38,573.53
             419.69,587.18 426.04,609.42 423.76,621.22
             420.50,637.68 419.55,658.97 421.35,671.37
             422.48,678.90 426.04,713.63 420.95,726.33
             418.28,733.00 413.39,767.13 413.39,767.13
             400.65,799.29 407.84,797.71 407.84,797.71
             411.78,802.55 418.54,798.09 418.54,798.09
             423.68,801.37 427.25,797.31 427.25,797.31
             431.66,800.97 436.81,796.86 436.81,796.86
             442.36,799.74 447.51,794.43 447.51,794.43
             450.69,796.03 451.47,794.01 451.47,794.01
             461.03,793.39 446.14,762.79 446.14,762.79
             442.57,735.31 449.68,720.01 449.68,720.01
             472.96,650.98 474.14,632.66 464.83,606.64
             462.21,599.13 461.55,596.16 462.76,592.89
             465.54,585.37 463.51,555.10 466.91,543.08
             473.47,519.90 479.94,461.10 483.32,433.67
             487.85,396.72 467.26,347.17 467.26,347.17
             462.75,327.01 469.36,255.18 469.36,255.18
             478.59,269.54 478.24,294.90 478.24,294.90
             476.78,321.50 499.73,362.14 499.73,362.14
             510.75,378.94 514.93,394.87 514.93,396.06
             514.93,400.90 513.87,412.61 513.87,412.61
             513.87,412.61 514.29,422.81 514.29,422.81
             514.48,425.41 515.94,434.35 515.71,438.68
             513.99,465.28 518.21,460.28 518.21,460.28
             521.78,460.28 525.70,438.87 525.70,438.87
             525.70,444.39 524.35,460.92 527.33,467.15
             530.89,474.59 533.51,465.88 533.56,464.13
             534.50,430.25 536.54,439.13 536.54,439.13
             538.52,466.61 540.95,472.82 545.32,470.67
             548.63,469.09 545.60,437.69 545.60,437.69
             551.27,456.34 555.56,459.31 555.56,459.31
             564.91,465.88 559.13,447.75 557.83,444.16
             550.91,425.08 550.70,418.47 550.70,418.47
             559.34,435.61 565.86,434.97 565.86,434.97
             574.29,432.28 558.49,408.01 549.24,396.38
             544.51,390.46 538.42,382.52 536.65,377.81
             533.77,369.83 531.60,344.18 531.60,344.18
             530.73,313.91 523.24,300.76 523.24,300.76
             510.45,280.28 508.04,242.08 508.04,242.08
             508.04,242.08 507.47,177.58 507.47,177.58
             502.99,133.58 470.57,133.26 470.57,133.26
             437.80,128.39 433.24,117.80 433.24,117.80
             426.30,107.81 430.27,88.67 430.27,88.67
             436.02,83.98 438.25,71.55 438.25,71.55
             447.81,64.22 447.34,53.49 442.92,53.60
             439.38,53.70 440.18,50.76 440.18,50.76
             446.16,2.47 403.28,0.00 403.28,0.00
             403.28,0.00 396.74,0.00 396.74,0.00
             396.74,0.00 353.84,2.47 359.82,50.75
             359.82,50.75 360.62,53.69 357.04,53.59
             352.64,53.48 352.23,64.21 361.75,71.54
             361.75,71.54 363.97,83.97 369.73,88.66
             369.73,88.66 373.70,107.80 366.76,117.79
             366.76,117.79 362.22,128.38 329.43,133.25
             329.43,133.25 296.96,133.57 292.54,177.57
             292.54,177.57 291.93,242.07 291.93,242.07
             291.93,242.07 289.57,280.27 276.72,300.75
             276.72,300.75 269.27,313.90 268.41,344.17
             268.41,344.17 266.23,369.82 263.36,377.80
             261.61,382.49 255.53,390.42 250.76,396.37
             241.43,407.98 225.74,432.20 234.13,434.96
             234.13,434.96 240.68,435.60 249.29,418.46
             249.29,418.46 249.11,425.02 242.20,444.14
             240.85,447.69 235.07,465.82 244.42,459.30
             244.42,459.30 248.76,456.33 254.39,437.68
             254.39,437.68 251.37,469.08 254.73,470.66
             259.12,472.81 261.52,466.60 263.50,439.11
             263.50,439.11 265.53,430.24 266.47,464.12
             266.52,465.86 269.08,474.58 272.66,467.14
             275.68,460.91 274.32,444.40 274.32,438.86
             274.32,438.86 278.20,460.27 281.82,460.27
             281.82,460.27 286.08,465.27 284.33,438.67
             284.05,434.32 285.57,425.40 285.76,422.80
             285.76,422.80 286.17,412.60 286.17,412.60
             286.17,412.60 285.11,400.91 285.11,396.05
             285.11,394.84 289.29,378.93 300.31,362.13
             300.31,362.13 323.24,321.46 321.76,294.89
             321.76,294.89 321.44,269.53 330.68,255.17
             330.68,255.17 337.23,327.00 332.79,347.16
             332.79,347.16 312.17,396.71 316.71,433.66
             320.06,461.17 326.52,519.88 333.10,543.07
             336.54,555.06 334.50,585.33 337.26,592.88
             338.50,596.17 337.85,599.19 335.18,606.63
             325.92,632.65 327.10,650.97 350.38,720.00
             350.38,720.00 357.55,735.30 353.93,762.78
             353.93,762.78 339.05,793.38 348.58,793.99
             348.58,793.99 349.32,796.02 352.55,794.42
             352.55,794.42 357.69,799.73 363.25,796.85
             363.25,796.85 368.40,800.96 372.80,797.30
             372.80,797.30 376.33,801.36 381.47,798.08
             381.47,798.08 388.23,802.63 392.24,797.70
             392.24,797.70 399.37,799.28 386.68,767.12
             386.68,767.12 381.82,733.03 379.14,726.32
             374.03,713.62 377.64,678.82 378.72,671.36
             380.48,658.89 379.54,637.65 376.33,621.21
             373.98,609.43 380.34,587.19 382.69,573.52
             387.52,544.74 396.98,471.26 395.80,457.36
             395.80,457.36 399.71,458.73 399.71,458.73
             402.50,458.74 404.27,457.37 404.27,457.37 Z" />
</svg>
